<?xml version="1.0" encoding="UTF-8"?>
<!DOCTYPE svg PUBLIC "-//W3C//DTD SVG 1.1//EN" "http://www.w3.org/Graphics/SVG/1.1/DTD/svg11.dtd">
<!-- Creator: CorelDRAW X6 -->
<svg xmlns="http://www.w3.org/2000/svg" xml:space="preserve" width="100%" height="100%" version="1.1" style="shape-rendering:geometricPrecision; text-rendering:geometricPrecision; image-rendering:optimizeQuality; fill-rule:evenodd; clip-rule:evenodd"
viewBox="0 0 500 500"
 xmlns:xlink="http://www.w3.org/1999/xlink">
 <defs>
  <style type="text/css">
   <![CDATA[
    .str1 {stroke:#0078C8;stroke-width:2.5}
    .str0 {stroke:#74C7FF;stroke-width:2.5}
    .fil5 {fill:none}
    .fil6 {fill:#0062A4}
    .fil4 {fill:url(#id0)}
    .fil3 {fill:url(#id1)}
    .fil0 {fill:url(#id2)}
    .fil2 {fill:url(#id3)}
    .fil1 {fill:url(#id4)}
   ]]>
  </style>
  <linearGradient id="id0" gradientUnits="userSpaceOnUse" x1="277.761" y1="223.1" x2="390.225" y2="88.81">
   <stop offset="0" style="stop-color:#17A2FF"/>
   <stop offset="1" style="stop-color:#0078C8"/>
  </linearGradient>
  <linearGradient id="id1" gradientUnits="userSpaceOnUse" x1="273.966" y1="226.91" x2="389.978" y2="88.69">
   <stop offset="0" style="stop-color:#006DB6"/>
   <stop offset="1" style="stop-color:#2EACFF"/>
  </linearGradient>
  <linearGradient id="id2" gradientUnits="userSpaceOnUse" x1="300.265" y1="297.313" x2="203.459" y2="216.239">
   <stop offset="0" style="stop-color:#B1B1B1"/>
   <stop offset="0.678431" style="stop-color:lightgrey"/>
   <stop offset="1" style="stop-color:#8A8A8A"/>
  </linearGradient>
  <linearGradient id="id3" gradientUnits="userSpaceOnUse" x1="114.239" y1="349.078" x2="136.658" y2="367.853">
   <stop offset="0" style="stop-color:#484848"/>
   <stop offset="0.180392" style="stop-color:#707070"/>
   <stop offset="0.788235" style="stop-color:#8A8A8A"/>
   <stop offset="1" style="stop-color:#F2F2F2"/>
  </linearGradient>
  <linearGradient id="id4" gradientUnits="userSpaceOnUse" xlink:href="#id3" x1="150.619" y1="361.641" x2="173.669" y2="380.945">
  </linearGradient>
 </defs>
 <g id="Layer_x0020_1">
  <metadata id="CorelCorpID_0Corel-Layer"/>
  <path class="fil0" d="M207 193c7,6 5,17 -2,25l-178 213 12 49 63 -13 6 -8 -2 -28 14 -1 20 -23 14 -2 13 -15 -1 -14 9 -12 -4 -10 6 -8 21 6 8 -9 44 11 48 -58c7,-8 17,-13 25,-6l-116 -97z"/>
  <polygon class="fil1" points="54,477 102,467 108,459 106,431 120,430 140,407 154,405 167,390 166,376 175,364 171,354 177,346 198,352 206,343 228,349 270,298 231,266 "/>
  <polygon class="fil2" points="204,243 220,256 37,474 31,449 "/>
  <path class="fil3" d="M320 21c-78,6 -135,75 -128,152 0,3 0,6 1,9l143 120c2,0 5,0 8,-1 78,-6 135,-75 128,-152 -6,-78 -75,-135 -152,-128zm71 70c18,16 21,44 5,62 -3,4 -6,6 -9,9l-65 -54c2,-4 4,-8 7,-11 15,-19 43,-21 62,-6z"/>
  <path class="fil4" d="M324 43c-64,6 -111,62 -105,126 0,2 0,5 1,7l117 98c2,0 5,0 7,0 64,-6 111,-62 105,-126 -5,-63 -62,-110 -125,-105zm61 54c15,13 17,35 5,50 -3,3 -5,5 -8,7l-52 -44c2,-3 3,-6 6,-8 12,-15 34,-17 49,-5z"/>
  <path class="fil5 str0" d="M408 70c-22,-19 -52,-30 -84,-27 -64,6 -111,62 -105,126 0,2 0,5 1,7m117 96c2,0 5,-1 7,-1 62,-5 108,-60 103,-122 -3,-32 -18,-59 -40,-77"/>
  <path class="fil5 str1" d="M407 72c-23,-19 -52,-29 -83,-26 -62,5 -108,60 -103,123 1,2 1,4 1,7m115 98c2,0 5,0 7,0 64,-6 111,-62 105,-126 -2,-31 -18,-59 -41,-78"/>
  <path class="fil6" d="M388 94c18,15 20,41 5,59 -2,3 -5,5 -9,8l-61 -52c2,-3 4,-7 6,-10 15,-18 42,-20 59,-5zm-3 3c15,13 17,35 5,50 -3,3 -5,5 -8,7l-52 -44c2,-3 3,-6 6,-8 12,-15 34,-17 49,-5z"/>
 </g>
</svg>
